<svg width="24" height="24" viewBox="0 0 24 24" fill="none" xmlns="http://www.w3.org/2000/svg">
<path d="M19.35 11.72L17.22 13.85L15.81 12.43L8.1 20.14L3.5 22L2 20.5L3.86 15.9L11.57 8.18998L10.15 6.77998L12.28 4.64998L19.35 11.72ZM16.76 2.99998C17.3225 2.43818 18.085 2.12262 18.88 2.12262C19.675 2.12262 20.4375 2.43818 21 2.99998C21.5618 3.56248 21.8774 4.32498 21.8774 5.11998C21.8774 5.91498 21.5618 6.67748 21 7.23998L19.08 9.15998L14.84 4.91998L16.76 2.99998ZM5.56 17.03L4.5 19.5L6.97 18.44L14.4 11L13 9.59998L5.56 17.03Z" fill="#ffffff"/>
</svg>
